# xmcd CD database file
#
# Track frame offsets:
#	150
#	13210
#	32162
#	48050
#	72112
#	89520
#	109712
#	129335
#
# Disc length: 1932 seconds
#
# Revision: 0
# Processed by: cddbd v1.5.1PL2 Copyright (c) Steve Scherf et al.
# Submitted via: CDex 1.51
#
DISCID=61078a08
DTITLE=Varios - El Alma De Cuba
DYEAR=1900
DGENRE=Salsa
TTITLE0=Habana Caliente - Mañana Por La Mañana
TTITLE1=Julio Bequé - Juan Pampiro
TTITLE2=La Vieja Trova Santiaguera - Me Dieron La Clave
TTITLE3=Cándido Fabré - El Cinturón Del Taxi
TTITLE4=Trío Matamoros - Lágrimas Negras
TTITLE5=Sara González - Amor De Millones
TTITLE6=Septeto Nacional I. Piñeiro - El Bodeguero
TTITLE7=Septeto Nacional I. Piñeiro - María Cristina
EXTD=
EXTT0=
EXTT1=
EXTT2=
EXTT3=
EXTT4=
EXTT5=
EXTT6=
EXTT7=
PLAYORDER=
